<svg id="Calendar" xmlns="http://www.w3.org/2000/svg" width="23" height="21" viewBox="0 0 23 21">
  <path id="Path_9" data-name="Path 9" d="M24.163,6.75H21.952v1.3a.439.439,0,0,1-.442.433h-.885a.439.439,0,0,1-.442-.433V6.75H9.567v1.3a.439.439,0,0,1-.442.433H8.24A.439.439,0,0,1,7.8,8.048V6.75H5.587A2.194,2.194,0,0,0,3.375,8.913V23.619a2.194,2.194,0,0,0,2.212,2.163H24.163a2.194,2.194,0,0,0,2.212-2.163V8.913A2.194,2.194,0,0,0,24.163,6.75Zm.442,16.22A1.1,1.1,0,0,1,23.5,24.051H6.25A1.1,1.1,0,0,1,5.144,22.97V13.238a.439.439,0,0,1,.442-.433H24.163a.439.439,0,0,1,.442.433Z" transform="translate(-3.375 -4.781)" fill="#9f8795"/>
  <path id="Path_10" data-name="Path 10" d="M10.99,4.992a.5.5,0,0,0-.5-.492h-1a.5.5,0,0,0-.5.492V6.469h1.99Z" transform="translate(-4.623 -4.5)" fill="#9f8795"/>
  <path id="Path_11" data-name="Path 11" d="M26.74,4.992a.5.5,0,0,0-.5-.492h-1a.5.5,0,0,0-.5.492V6.469h1.99Z" transform="translate(-8.118 -4.5)" fill="#9f8795"/>
</svg>
