<svg id="Delete" xmlns="http://www.w3.org/2000/svg" width="24" height="24" viewBox="0 0 24 24">
  <path id="Path_106" data-name="Path 106" d="M15,2H11.5l-1-1h-5l-1,1H1V4H15Z" transform="translate(-1 -1)" fill="#9f8795"/>
  <path id="Path_107" data-name="Path 107" d="M17.333,9a8.237,8.237,0,0,0-2.19.29V5H2V17a2.108,2.108,0,0,0,2.19,2h6.221a7.747,7.747,0,0,0,6.922,4C21.572,23,25,19.87,25,16S21.572,9,17.333,9Zm0,12a5.256,5.256,0,0,1-5.476-5,5.256,5.256,0,0,1,5.476-5,5.256,5.256,0,0,1,5.476,5A5.256,5.256,0,0,1,17.333,21Z" transform="translate(-1 1)" fill="#9f8795"/>
  <path id="Path_108" data-name="Path 108" d="M16.5,12H15v5l3.6,2.1.8-1.2-2.9-1.7Z" transform="translate(0.591 0.477)" fill="#9f8795"/>
</svg>
