<svg xmlns="http://www.w3.org/2000/svg" width="23" height="14.693" viewBox="0 0 23 14.693">
  <g id="Editting" transform="translate(0 0)">
    <path id="Path_18" data-name="Path 18" d="M2.778,17.718H18.332a1.975,1.975,0,0,0,2.207-2.178V9.146l-1.485,1.484v4.8a.84.84,0,0,1-.925.922H2.98a.839.839,0,0,1-.923-.922V9.172A.836.836,0,0,1,2.98,8.25H15.257l1.375-1.367H2.778A1.974,1.974,0,0,0,.571,9.06V15.54A1.975,1.975,0,0,0,2.778,17.718Z" transform="translate(-0.571 -3.025)" fill="#9f8795"/>
    <path id="Path_19" data-name="Path 19" d="M18.7,11.365l1.581-.676,6.467-6.461L25.579,3.07,19.124,9.533l-.713,1.536A.227.227,0,0,0,18.7,11.365Zm8.622-7.717.542-.548a.687.687,0,0,0,.016-1.008l-.2-.2a.689.689,0,0,0-.975.059l-.538.532Z" transform="translate(-5.091 -1.714)" fill="#9f8795"/>
    <path id="Path_20" data-name="Path 20" d="M5.893,14.871a1.114,1.114,0,1,0-1.115-1.114A1.114,1.114,0,0,0,5.893,14.871Z" transform="translate(-1.638 -4.486)" fill="#9f8795"/>
    <path id="Path_21" data-name="Path 21" d="M10.326,14.871a1.114,1.114,0,1,0-1.114-1.114A1.114,1.114,0,0,0,10.326,14.871Z" transform="translate(-2.763 -4.486)" fill="#9f8795"/>
    <path id="Path_22" data-name="Path 22" d="M14.76,14.871a1.114,1.114,0,1,0-1.113-1.114A1.113,1.113,0,0,0,14.76,14.871Z" transform="translate(-3.888 -4.486)" fill="#9f8795"/>
  </g>
</svg>
