<svg id="Explore" xmlns="http://www.w3.org/2000/svg" xmlns:xlink="http://www.w3.org/1999/xlink" width="24" height="24" viewBox="0 0 24 24">
  <defs>
    <clipPath id="clip-path">
      <rect id="Rectangle_58" data-name="Rectangle 58" width="24" height="24" fill="#c7c7cc"/>
    </clipPath>
  </defs>
  <g id="noun-category-1046671_1" data-name="noun-category-1046671 1" clip-path="url(#clip-path)">
    <path id="Path_60" data-name="Path 60" d="M.81.757H6.969V7H.81Z" transform="translate(-0.324 -0.303)" fill="#c7c7cc"/>
    <path id="Path_61" data-name="Path 61" d="M6.675,7.148H.516A.444.444,0,0,1,.075,6.7V.458A.444.444,0,0,1,.516.011H6.675a.438.438,0,0,1,.312.131.449.449,0,0,1,.129.316V6.7a.451.451,0,0,1-.129.317A.439.439,0,0,1,6.675,7.148ZM.957,6.253H6.234V.906H.957Z" transform="translate(-0.03 -0.004)" fill="#c7c7cc"/>
    <path id="Path_62" data-name="Path 62" d="M14.882.757h6.159V7H14.882Z" transform="translate(-5.953 -0.303)" fill="#c7c7cc"/>
    <path id="Path_63" data-name="Path 63" d="M20.747,7.148h-6.16a.444.444,0,0,1-.442-.447V.458a.444.444,0,0,1,.442-.447h6.16a.438.438,0,0,1,.312.131.45.45,0,0,1,.129.316V6.7a.451.451,0,0,1-.129.317A.439.439,0,0,1,20.747,7.148ZM15.03,6.253h5.276V.906H15.029Z" transform="translate(-5.658 -0.004)" fill="#c7c7cc"/>
    <path id="Path_64" data-name="Path 64" d="M28.955.757h6.159V7H28.955Z" transform="translate(-11.582 -0.303)" fill="#c7c7cc"/>
    <path id="Path_65" data-name="Path 65" d="M34.819,7.148H28.66a.444.444,0,0,1-.442-.447V.458A.444.444,0,0,1,28.66.011h6.159a.439.439,0,0,1,.312.131.45.45,0,0,1,.129.316V6.7a.452.452,0,0,1-.129.317A.439.439,0,0,1,34.819,7.148ZM29.1,6.253h5.277V.906H29.1Z" transform="translate(-11.287 -0.004)" fill="#c7c7cc"/>
    <path id="Path_66" data-name="Path 66" d="M.81,14.783H6.969v6.242H.81Z" transform="translate(-0.324 -5.913)" fill="#c7c7cc"/>
    <path id="Path_67" data-name="Path 67" d="M6.675,21.175H.516a.444.444,0,0,1-.442-.447V14.485a.444.444,0,0,1,.442-.447H6.675a.438.438,0,0,1,.312.131.45.45,0,0,1,.129.316v6.243a.45.45,0,0,1-.129.316A.438.438,0,0,1,6.675,21.175ZM.957,20.28H6.234V14.932H.957Z" transform="translate(-0.03 -5.615)" fill="#c7c7cc"/>
    <path id="Path_68" data-name="Path 68" d="M14.882,14.783h6.159v6.242H14.882Z" transform="translate(-5.953 -5.913)" fill="#c7c7cc"/>
    <path id="Path_69" data-name="Path 69" d="M20.747,21.175h-6.16a.444.444,0,0,1-.442-.447V14.485a.444.444,0,0,1,.442-.447h6.16a.438.438,0,0,1,.312.131.45.45,0,0,1,.129.316v6.243a.45.45,0,0,1-.129.316A.438.438,0,0,1,20.747,21.175ZM15.03,20.28h5.276V14.932H15.029Z" transform="translate(-5.658 -5.615)" fill="#c7c7cc"/>
    <path id="Path_70" data-name="Path 70" d="M28.955,14.783h6.159v6.242H28.955Z" transform="translate(-11.582 -5.913)" fill="#c7c7cc"/>
    <path id="Path_71" data-name="Path 71" d="M34.819,21.175H28.66a.444.444,0,0,1-.442-.447V14.485a.444.444,0,0,1,.442-.447h6.159a.439.439,0,0,1,.312.131.451.451,0,0,1,.129.316v6.243a.451.451,0,0,1-.129.316A.439.439,0,0,1,34.819,21.175ZM29.1,20.28h5.277V14.932H29.1Z" transform="translate(-11.287 -5.615)" fill="#c7c7cc"/>
    <path id="Path_72" data-name="Path 72" d="M.81,28.81H6.969v6.242H.81Z" transform="translate(-0.324 -11.524)" fill="#c7c7cc"/>
    <path id="Path_73" data-name="Path 73" d="M6.675,35.2H.516a.444.444,0,0,1-.442-.447V28.512a.444.444,0,0,1,.442-.447H6.675a.439.439,0,0,1,.312.131.451.451,0,0,1,.129.317v6.242a.449.449,0,0,1-.129.316A.438.438,0,0,1,6.675,35.2ZM.957,34.306H6.234V28.959H.957Z" transform="translate(-0.03 -11.226)" fill="#c7c7cc"/>
    <path id="Path_74" data-name="Path 74" d="M14.882,28.81h6.159v6.242H14.882Z" transform="translate(-5.953 -11.524)" fill="#c7c7cc"/>
    <path id="Path_75" data-name="Path 75" d="M20.747,35.2h-6.16a.444.444,0,0,1-.442-.447V28.512a.444.444,0,0,1,.442-.447h6.16a.439.439,0,0,1,.312.131.451.451,0,0,1,.129.317v6.242a.449.449,0,0,1-.129.316A.438.438,0,0,1,20.747,35.2Zm-5.718-.895h5.276V28.959H15.029Z" transform="translate(-5.658 -11.226)" fill="#c7c7cc"/>
    <path id="Path_76" data-name="Path 76" d="M28.955,28.81h6.159v6.242H28.955Z" transform="translate(-11.582 -11.524)" fill="#c7c7cc"/>
    <path id="Path_77" data-name="Path 77" d="M34.819,35.2H28.66a.444.444,0,0,1-.442-.447V28.512a.444.444,0,0,1,.442-.447h6.159a.439.439,0,0,1,.312.131.452.452,0,0,1,.129.317v6.242a.45.45,0,0,1-.129.316A.439.439,0,0,1,34.819,35.2ZM29.1,34.306h5.277V28.959H29.1Z" transform="translate(-11.287 -11.226)" fill="#c7c7cc"/>
  </g>
</svg>
