<svg xmlns="http://www.w3.org/2000/svg" xmlns:xlink="http://www.w3.org/1999/xlink" width="32" height="32" viewBox="0 0 32 32">
  <defs>
    <clipPath id="clip-path">
      <circle id="Ellipse_58" data-name="Ellipse 58" cx="16" cy="16" r="16" transform="translate(382 72)" fill="#fff"/>
    </clipPath>
  </defs>
  <g id="Mask_Group_2" data-name="Mask Group 2" transform="translate(-382 -72)" clip-path="url(#clip-path)">
    <g id="saudi-arabia-flag-icon" transform="translate(382 77.333)">
      <path id="Path_277" data-name="Path 277" d="M0,0H48V32H0Z" transform="translate(-8 -5.333)" fill="#006c35"/>
      <path id="Path_278" data-name="Path 278" d="M13.793,5.039a.163.163,0,0,0-.076.029.564.564,0,0,0-.237.4c0,.1-.024.1.044.171.049.071.1.064.2.012a.211.211,0,0,0,.1-.14c.024-.119-.125.056-.144-.076s.062-.173.152-.292c0-.056,0-.1-.033-.1Zm1.453.008c-.028,0-.062.039-.109.125a.53.53,0,0,0-.075.507,1.5,1.5,0,0,1,.083.789,1.517,1.517,0,0,1-.152.215.249.249,0,0,1-.321.044.344.344,0,0,1-.192-.271,3.71,3.71,0,0,0-.029-.872.158.158,0,0,0-.264-.053,1.991,1.991,0,0,0-.479.983c-.074.239-.153.17-.208.073-.135-.126-.144-1.113-.307-.951-.26.744.149,1.559.433,1.48.2.085.335-.305.419-.732.057-.12.1-.134.131-.072-.008.568.041.694.187.867a.471.471,0,0,0,.616.011l.253-.253a.152.152,0,0,1,.211-.011c.077.07.067.192.233.276a.513.513,0,0,0,.507-.107c.093-.159.116-.214.159-.275.066-.088.18-.049.18-.021-.011.049-.077.1-.032.187.079.059.1.021.144.008.165-.079.289-.437.289-.437.007-.134-.069-.124-.117-.1s-.067.052-.131.091c-.081.012-.237.065-.315-.055a4.754,4.754,0,0,1-.14-.491c0-.011-.106-.229-.008-.243.049.009.155.037.172-.052.052-.086-.112-.331-.223-.455a.24.24,0,0,0-.359-.011c-.09.083-.077.176-.095.264a.412.412,0,0,0,.084.36,1.1,1.1,0,0,1,.2.728.292.292,0,0,1-.263.133c-.07-.015-.184-.045-.244-.492-.046-.338.012-.812-.132-1.033-.032-.084-.06-.165-.107-.159Zm-.46.036c-.043,0-.091.054-.131.152a2.47,2.47,0,0,0-.068.463c-.027.116.121.165.188.016a1.416,1.416,0,0,0,.108-.5c-.016-.088-.054-.13-.1-.127Zm1.7.031c-.045,0-.08.03-.093.1a1.013,1.013,0,0,0,.017.368,1.3,1.3,0,0,0,.207.313c.294.4.577.793.851,1.2q.064.449.095.9a18.151,18.151,0,0,1,.017,2.151c.122,0,.318-.2.387-.493a14.349,14.349,0,0,0-.02-1.487c0-.1-.009-.22-.016-.345q.5.817.929,1.675c.11-.052.086-.674.021-.761C18.638,8.213,18.3,7.7,18.2,7.5c-.039-.072-.17-.271-.325-.5-.029-.328-.06-.607-.08-.691-.05-.347.143.039.116-.163a2.222,2.222,0,0,0-.48-.9c-.073-.1-.072-.124-.184.025a.662.662,0,0,0-.047.4q-.056-.081-.119-.157c-.2-.168-.207-.177-.369-.313a.4.4,0,0,0-.223-.085Zm5.035.052c-.022,0-.045.007-.072.047a.3.3,0,0,0-.1.229c.012.183.045.37.057.553l.013.073a.714.714,0,0,0-.047-.055c-.357-.375.164-.061-.068-.351a2.777,2.777,0,0,0-.421-.413c-.084-.054-.135-.158-.163.019a3.486,3.486,0,0,0-.012.467.628.628,0,0,0,.14.291q.371.457.725.928c.051.662.065,1.269.117,1.932-.007.284-.095.66-.177.7,0,0-.126.073-.211-.008a2.53,2.53,0,0,1-.307-.409.187.187,0,0,0-.3,0,4.12,4.12,0,0,0-.525.991c-.043.068-.165.127-.3-.005a1.4,1.4,0,0,1-.185-.965,1.067,1.067,0,0,0-.1,1.039.815.815,0,0,0,.379.431.266.266,0,0,0,.395-.043c.18-.186.182-.663.267-.757a.158.158,0,0,1,.28-.067.688.688,0,0,0,.256.221.43.43,0,0,0,.565.04.655.655,0,0,0,.3-.368,12.91,12.91,0,0,0,.024-2.075c.127.178.252.361.376.545a13.521,13.521,0,0,1,.061,1.7c-.013.109.38-.325.377-.531,0-.18,0-.343,0-.495.191.3.375.614.549.927.108-.057.071-.669,0-.753-.183-.306-.416-.637-.6-.893-.036-.323-.084-.7-.107-.821-.035-.182-.069-.456-.121-.672a2.293,2.293,0,0,1-.044-.38c.021-.06.1,0,.141-.068a2.422,2.422,0,0,0-.34-.947c-.048-.088-.136-.057-.244.085-.1.094-.064.308-.025.512.1.519.188,1.048.259,1.576q-.22-.328-.445-.653c0-.022-.02-.1-.02-.1s-.022-.425-.04-.524c0-.04-.013-.052.029-.047a.243.243,0,0,0,.079.052c.045.008.085-.068.057-.139L21.577,5.2a.116.116,0,0,0-.057-.037ZM8.527,5.178c-.077,0-.163.046-.129.139-.019.051.151.222.181.316.027.067-.027.283.029.3s.122-.149.149-.308c.015-.087,0-.384-.2-.445a.166.166,0,0,0-.032,0Zm14.8,0c-.018,0-.039.03-.072.1a.926.926,0,0,0-.075.567,31.148,31.148,0,0,1,.361,3.679,1.192,1.192,0,0,1-.072.3,2.428,2.428,0,0,1-.353.412c-.117.087-.365.17-.447.235-.258.149-.259.32-.051.327a1.285,1.285,0,0,0,1.077-.513,1.712,1.712,0,0,0,.175-.665,15.523,15.523,0,0,0-.2-3.255,1.613,1.613,0,0,1-.035-.305c.023-.06.141.006.183-.063.061-.063-.3-.531-.432-.731-.026-.05-.041-.092-.064-.089ZM19.56,5.2c-.015,0-.037.025-.077.079a1.759,1.759,0,0,0-.1.8,17.4,17.4,0,0,1,.48,3.852c.122,0,.264-.28.324-.557a4.726,4.726,0,0,0-.032-.84c-.01-.225-.254-2.049-.3-2.219-.06-.322.238-.042.205-.229-.1-.236-.36-.579-.44-.784-.03-.055-.034-.106-.059-.1Zm-9.175.025a.1.1,0,0,0-.073.075c-.007.028.012.075-.013.089s-.07,0-.068-.073a.13.13,0,0,0-.029-.067.058.058,0,0,0-.039-.009c-.024,0-.024.007-.037.028a.231.231,0,0,0-.014.065c0,.028-.014.037-.035.041s-.017,0-.036-.009-.024-.017-.024-.037a.22.22,0,0,0-.012-.069.074.074,0,0,0-.043-.024c-.1,0-.1.111-.1.152-.007.008-.011.2.12.257.176.084.5.048.491-.235,0-.025-.006-.109-.008-.132a.076.076,0,0,0-.083-.052Zm2.355,0a.392.392,0,0,0-.16.044.3.3,0,0,0-.052.4c.089.042.178.132.119.181-.252.269-.908.719-.941.8v0a.019.019,0,0,0,0,0,.007.007,0,0,0,0,0v0h.007a1.868,1.868,0,0,0,.489,0h0s0,0,0,0a6.908,6.908,0,0,0,.811-.817c-.035-.03-.067-.052-.1-.081s-.033-.064,0-.1a.265.265,0,0,0,.027-.405.432.432,0,0,0-.2-.04Zm6.155,0c-.018,0-.039.029-.072.1A1.124,1.124,0,0,0,18.7,5.9c.171,1.187.224,2.225.336,3.412a.469.469,0,0,1-.084.348,3.344,3.344,0,0,1-1.132.825c-.048.054.118.282.333.281a1.264,1.264,0,0,0,.968-.775,1.381,1.381,0,0,0,.22-.595A12.981,12.981,0,0,0,19.1,6.38a.5.5,0,0,1,.011-.211c.023-.028.1,0,.144-.068.061-.063-.164-.583-.292-.783-.026-.05-.041-.09-.064-.088ZM9.36,5.267a.158.158,0,0,0-.119.1,3.439,3.439,0,0,0,.012.556,6.07,6.07,0,0,1,.156.893c.012.422-.244.183-.232-.027a1.9,1.9,0,0,0-.009-.808c-.042-.108-.09-.135-.191-.117-.08,0-.287.221-.345.595a3.524,3.524,0,0,0-.069.363c-.028.193-.156.33-.245-.027-.077-.259-.124-.9-.253-.748-.037.5-.081,1.375.343,1.465.512.049.229-.866.415-1.032.035-.082.1-.084.105.02v.777a.373.373,0,0,0,.291.38c.134-.01.223-.007.276.124q.031.672.064,1.345s.31.089.325-.756a7.9,7.9,0,0,1-.032-1.009c0-.095.124-.1.208-.053.134.094.193.211.4.164.317-.087.507-.241.512-.484a2.108,2.108,0,0,0-.145-.693c.014-.042-.061-.151-.047-.193.057.089.143.082.163,0a.693.693,0,0,0-.273-.421c-.112-.1-.276-.078-.336.128a1.12,1.12,0,0,0,.259.748.733.733,0,0,1,.065.373.2.2,0,0,1-.26-.051s-.252-.189-.252-.231a.9.9,0,0,0-.023-.6.8.8,0,0,0-.167-.328c-.063-.067-.149-.067-.189,0a1.13,1.13,0,0,0,.021.793c.058.171.147.277.105.277-.035.1-.107.074-.159-.037a2.772,2.772,0,0,1-.089-.728c-.022-.192-.047-.6-.173-.705a.12.12,0,0,0-.112-.057Zm1.8,0c-.025,0-.054.018-.087.025a.254.254,0,0,0-.179.312c.129.782.213,1.379.341,2.161.02.092-.057.212-.156.2-.168-.114-.21-.344-.5-.335a.56.56,0,0,0-.475.447,1.084,1.084,0,0,0,0,.512.416.416,0,0,0,.475.117c.126-.052.23-.176.275-.147h0s0,0,0,0c.028.048,0,.455-.595.769-.364.163-.653.2-.809-.095-.1-.186.007-.893-.231-.729-.7,1.812,1.647,2.065,1.909.075.017-.056.069-.112.105-.1.016.007.031.029.036.069-.054,1.8-1.818,1.926-2.117,1.359a1.747,1.747,0,0,1-.1-.609A.3.3,0,0,0,8.98,9.11c-.071-.054-.167.086-.188.329a2.183,2.183,0,0,0-.021.437c.094,1.423,2.363.812,2.732-.364A3.917,3.917,0,0,0,11.56,8.39h.016c.225.243.541.031.611-.053a.1.1,0,0,1,.156-.015.364.364,0,0,0,.548-.156,4.935,4.935,0,0,0,.076-.675.684.684,0,0,0-.244.1.065.065,0,0,0-.017.032c-.01.064-.019.129-.029.193a.048.048,0,0,1-.005.015.062.062,0,0,1-.021.02c-.04.022-.111.009-.115-.049-.054-.248-.278-.28-.415.1-.092.074-.259.089-.276-.023.022-.257-.081-.292-.289-.171-.067-.51-.133-1-.2-1.507.087,0,.166.06.245-.039a2.863,2.863,0,0,0-.369-.86h0a.136.136,0,0,0-.021-.02l-.007,0-.013-.005a.069.069,0,0,0-.028,0Zm7.012,0c-.09,0-.189.054-.151.167-.023.061.193.27.228.384.063.175-.048.343.017.367s.143-.181.175-.373a.58.58,0,0,0-.232-.54.186.186,0,0,0-.037,0Zm-5.463.192a.132.132,0,0,1,.115.087c.026.057.013.111-.029.121s-.1-.027-.123-.084-.013-.112.029-.123h.008Zm10.133.263a.133.133,0,0,0-.136.181c-.021.067.175.293.207.416.029.088-.043.371.016.4s.131-.2.16-.4c.016-.114-.069-.514-.212-.585a.15.15,0,0,0-.035-.005Zm-5.6.139c.008.033.015.067.02.1.017.074.031.147.047.22-.065-.089-.118-.161-.141-.187C17.018,5.828,17.167,5.887,17.239,5.867ZM18.53,6.5a.1.1,0,0,0-.073.076c-.007.028.014.074-.012.088s-.072.006-.069-.072a.135.135,0,0,0-.029-.068.058.058,0,0,0-.039-.009c-.024,0-.024.007-.037.028a.243.243,0,0,0-.013.065c0,.028-.013.037-.033.041s-.019,0-.037-.009-.024-.017-.024-.037a.219.219,0,0,0-.012-.069.073.073,0,0,0-.043-.023c-.1,0-.1.109-.1.151-.007.008-.012.2.119.259.176.084.506.047.492-.236,0-.025-.007-.109-.009-.132A.076.076,0,0,0,18.53,6.5Zm-5.893.059a.142.142,0,0,0-.083.025.361.361,0,0,0-.119.479.234.234,0,0,0,.252.081c.152.019.243-.285.243-.285s0-.086-.176.076c-.076.014-.086-.013-.105-.056a.379.379,0,0,1,.024-.239c.017-.047,0-.078-.036-.081Zm8.331.039a.2.2,0,0,0-.2.169c0,.069.031.108.025.171-.009.036-.046.06-.135.017.014-.013-.057-.113-.057-.113-.069-.042-.161,0-.221.041a.337.337,0,0,0-.02.268c.1.183.439.5.6.5,0-.165.019-.385.028-.521,0-.052.016-.108.065-.121s.135.05.136,0a.708.708,0,0,0-.089-.333.168.168,0,0,0-.132-.072Zm-6.9.575-.007,0,0,0a.853.853,0,0,1-.083.075c-.076.087-.09.147-.085.321,0,.018.145.409.264.684a2.122,2.122,0,0,1,.1.921,2.269,2.269,0,0,1-.931.973.486.486,0,0,1-.389,0h0a.241.241,0,0,1-.1-.221h0a2.194,2.194,0,0,0,.935-.967.989.989,0,0,0,.025-.7.662.662,0,0,0-.157-.323h0c.052-.025.188.075.209.012a1.014,1.014,0,0,0-.268-.495.227.227,0,0,0-.329-.02c-.113.063-.137.289-.083.487.06.149.224.175.34.475h0c0,.019.04.224-.019.307a3.672,3.672,0,0,1-.7.659l0,0h-.008v0c0-.012,0-.043,0-.092,0-.09.033-.294.031-.329h0c-.2.13-.268.53-.305.648a9.577,9.577,0,0,0-1.425.973c-.174.272,1.2-.312,1.359-.383l0,0c.03.033.033.15.124.255a.726.726,0,0,0,.741.239,2.352,2.352,0,0,0,1.071-.891c.042-.06.107-.108.167-.061a1.677,1.677,0,0,0,1.519.8c.172-.209.09-.312.02-.356-.022-.014-.37-.15-.424-.285-.034-.126.049-.237.215-.321a7.464,7.464,0,0,0,1.4-.268,1.233,1.233,0,0,1,.155-.48.226.226,0,0,1,.079-.085h0v0a.043.043,0,0,0,0-.013l-.077-.045L15.9,8.656a.163.163,0,0,1-.041-.021l0,0h0v0h0v0h0v0A.114.114,0,0,1,15.9,8.58c.364-.05,1.01-.156,1.053-.777a.511.511,0,1,0-1,.021c-.014.084.028.248-.057.267-.56.051-1.171.4-1.192.653h-.025a.146.146,0,0,1-.076-.155,3.005,3.005,0,0,0-.384-1.3c-.079-.079-.113-.111-.136-.115h-.011ZM15.53,7.4a.1.1,0,0,0-.073.075c-.007.028.014.075-.012.089s-.072.006-.069-.072a.135.135,0,0,0-.029-.068.054.054,0,0,0-.037-.009c-.024,0-.025.007-.039.028a.243.243,0,0,0-.013.065c0,.028-.013.037-.033.041s-.017,0-.036-.009-.025-.017-.025-.037a.221.221,0,0,0-.011-.069.076.076,0,0,0-.044-.023c-.1,0-.1.109-.1.151-.007.008-.012.2.119.259.175.084.594.034.492-.236,0-.025-.007-.109-.009-.132A.076.076,0,0,0,15.53,7.4Zm5.887.241a.029.029,0,0,0-.015,0s-.813.579-.833.6c-.081.072-.04.324,0,.295a3.238,3.238,0,0,0,.861-.6c.036,0,.053-.285-.013-.3ZM16.3,7.73a.208.208,0,0,1,.119.032c.061.035.1.088.093.127,0,0,0,0,0,0l0,0v.009l-.008.009a.149.149,0,0,1-.16-.013.16.16,0,0,1-.093-.127v0a.046.046,0,0,1,.005-.013l0-.005h0l.007-.007A.076.076,0,0,1,16.3,7.73Zm-7.121.147a1.354,1.354,0,0,0-1.055.855c.445-.214.881-.419,1.333-.64-.073-.109,0-.207-.279-.215Zm1.365.189a.114.114,0,0,1,.108.079.137.137,0,0,1-.024.136s0,0,0,0v0c-.018.023-.08.013-.124.013a.12.12,0,0,1-.112-.055c-.015-.048.031-.1.052-.132h0l.009-.011a.139.139,0,0,1,.073-.032Zm10.716.168a.141.141,0,0,0-.113.193c-.021.067.1.3.133.423.029.088-.037.337.023.363s.2-.148.193-.369c.016-.114-.041-.534-.184-.605a.135.135,0,0,0-.052,0Zm-9.1.411c-.066,0-.125.04-.1.133,0,.068.187.15.2.307.027.065-.041.271.016.291s.125-.143.152-.3c.015-.084-.066-.377-.2-.429A.235.235,0,0,0,12.157,8.644Zm2.724.372H14.9a4.726,4.726,0,0,0,.637.073c.177.011.264.15.1.208s-.321.1-.321.336a.326.326,0,0,1,0,.207l-.005.007H15.3l-.008,0h-.008c-.039.006-.1-.031-.137-.053a.864.864,0,0,1-.424-.624.158.158,0,0,1,.16-.165Zm-6.653.289c-.011,0-.032.032-.06.068a1.322,1.322,0,0,0-.135,1.173.292.292,0,0,0,.284.095.521.521,0,0,0,.189-.5c-.053-.082-.094-.1-.147-.025-.111.225-.157.071-.167-.055a2.886,2.886,0,0,1,.032-.632c.014-.089.013-.12,0-.12Zm8.54.524a.115.115,0,0,0-.059.012,1.064,1.064,0,0,0-.236.2c-.035.026-.031.049-.02.095.027.062.074.042.128.013.071-.01.106.037.1.123a.158.158,0,0,0,.015.153.118.118,0,0,0,.149.019,2.825,2.825,0,0,1,.515-.18c.063,0,.059-.169-.04-.175a.586.586,0,0,0-.377.115c-.079.018-.093-.03-.111-.073-.02-.108.045-.183.032-.264a.187.187,0,0,0-.1-.039Zm5.468.2c-.032,0-.065.005-.113.009s-.07.034-.08.1c0,.1.063.091.123.129a.1.1,0,0,1,0,.157c-.057.052-.1.081-.155.133-.027.046-.044.116.039.139.152.043.5-.186.5-.191a.112.112,0,0,0,.033-.124c-.033-.038-.108-.015-.159-.021-.024,0-.1-.012-.065-.081a.473.473,0,0,0,.064-.123c.024-.052,0-.087-.083-.116A.475.475,0,0,0,22.236,10.034Zm-2.284,4.625h0a.24.24,0,0,0-.083.443c-2.671,0-6.769-.045-7.648-.045-.492,0-2.047-.059-2.077-.059a1.576,1.576,0,0,0,1.449.6c1.186,0,6.682-.015,8.247-.015a.548.548,0,0,0,.1.573l.007,0,.011,0h0c.1.024.149-.051.184-.105a10.714,10.714,0,0,0,1.2,0h0c.059.086.117.168.228.153.195-.042.348-.063.353-.459,0,0-.02-.674-.463-.632-.1.016-.4.045-.4.045-.34-.04-.59-.045-.972-.059.035-.045.1-.226.021-.292a.123.123,0,0,0-.091-.023h-.009L20,14.781l0,0c-.019-.028-.03-.1-.043-.115h-.008Zm.181.964h0c.39.019.756,0,1.145.023a.141.141,0,0,1-.009.195l-.007,0h-.011l-.327-.009a.073.073,0,0,0,0-.019c-.03-.089-.247-.083-.3-.013l0,0,0,.005,0,.007a.06.06,0,0,0,0,.009.059.059,0,0,0,0,.011,3.063,3.063,0,0,1-.5-.012c-.05-.063-.044-.176.015-.2Z" fill="#fff" fill-rule="evenodd"/>
    </g>
  </g>
</svg>
