<svg id="Card" xmlns="http://www.w3.org/2000/svg" width="24" height="24" viewBox="0 0 24 24">
  <path id="Icon_material-card-giftcard" data-name="Icon material-card-giftcard" d="M24.6,8.053H21.984A3.974,3.974,0,0,0,22.2,6.789,3.693,3.693,0,0,0,18.6,3a3.554,3.554,0,0,0-3,1.705l-.6.846-.6-.859A3.571,3.571,0,0,0,11.4,3,3.693,3.693,0,0,0,7.8,6.789a3.974,3.974,0,0,0,.216,1.263H5.4a2.447,2.447,0,0,0-2.388,2.526L3,24.474A2.457,2.457,0,0,0,5.4,27H24.6A2.457,2.457,0,0,0,27,24.474V10.579A2.457,2.457,0,0,0,24.6,8.053Zm-6-2.526a1.265,1.265,0,1,1-1.2,1.263A1.236,1.236,0,0,1,18.6,5.526Zm-7.2,0a1.265,1.265,0,1,1-1.2,1.263A1.236,1.236,0,0,1,11.4,5.526ZM24.6,24.474H5.4V21.947H24.6Zm0-6.316H5.4V10.579h6.1L9,14.154l1.944,1.478L13.8,11.539,15,9.821l1.2,1.718,2.856,4.093L21,14.154l-2.5-3.575h6.1Z" transform="translate(-3 -3)" fill="#9f8795"/>
</svg>
