<svg xmlns="http://www.w3.org/2000/svg" width="32" height="32" viewBox="0 0 32 32">
  <path id="Icon_ionic-ios-help-circle" data-name="Icon ionic-ios-help-circle" d="M19.375,3.375a16,16,0,1,1-16,16A16,16,0,0,1,19.375,3.375Zm.331,23.385a1.586,1.586,0,1,0-1.654-1.585A1.606,1.606,0,0,0,19.706,26.76Zm-3.092-7.454c1.338.777,1.792,1.346,1.792,2.331v.608h2.669l.023-.662A3.2,3.2,0,0,0,19.283,18.2c-1.3-.777-1.846-1.269-1.846-2.223a1.867,1.867,0,0,1,2.069-1.654,1.946,1.946,0,0,1,2.062,1.892H24.3c-.054-2.477-1.885-4.231-4.977-4.231-2.885,0-4.869,1.6-4.869,3.9A3.765,3.765,0,0,0,16.613,19.306Z" transform="translate(-3.375 -3.375)" fill="#9f8795"/>
</svg>
