<svg id="Home" xmlns="http://www.w3.org/2000/svg" width="24.008" height="24" viewBox="0 0 24.008 24">
  <path id="Path_96" data-name="Path 96" d="M15.509,7.306a.206.206,0,0,0-.27,0L6.831,14.265a.237.237,0,0,0-.081.173V27.263a.11.11,0,0,0,.108.112h5.821a.11.11,0,0,0,.108-.112V19.457a.11.11,0,0,1,.108-.112h4.959a.11.11,0,0,1,.108.112v7.807a.11.11,0,0,0,.108.112H23.89A.11.11,0,0,0,24,27.263V14.438a.228.228,0,0,0-.081-.173Z" transform="translate(-3.374 -3.375)" fill="#9f8795"/>
  <path id="Path_97" data-name="Path 97" d="M27.069,14.358,16.165,3.713a1.094,1.094,0,0,0-1.581,0l-4.748,4.7V5.449a.13.13,0,0,0-.115-.141H6.259a.13.13,0,0,0-.115.141v6.483L3.681,14.4a1.073,1.073,0,0,0-.306.717,1.124,1.124,0,0,0,.237.752.738.738,0,0,0,.571.288.728.728,0,0,0,.508-.218L15.3,5.534a.091.091,0,0,1,.075-.028.122.122,0,0,1,.075.028L26.059,15.9a.705.705,0,0,0,1.079-.07,1.1,1.1,0,0,0,.242-.752A1.078,1.078,0,0,0,27.069,14.358Z" transform="translate(-3.374 -3.375)" fill="#9f8795"/>
</svg>
