<svg xmlns="http://www.w3.org/2000/svg" xmlns:xlink="http://www.w3.org/1999/xlink" width="175.662" height="190" viewBox="0 0 175.662 190">
  <defs>
    <filter id="Rectangle_127" x="0" y="0" width="175.662" height="190" filterUnits="userSpaceOnUse">
      <feOffset dy="1" input="SourceAlpha"/>
      <feGaussianBlur stdDeviation="5" result="blur"/>
      <feFlood flood-color="#98012e" flood-opacity="0.098"/>
      <feComposite operator="in" in2="blur"/>
      <feComposite in="SourceGraphic"/>
    </filter>
  </defs>
  <g id="Group_1299" data-name="Group 1299" transform="translate(-105 -143)">
    <g transform="matrix(1, 0, 0, 1, 105, 143)" filter="url(#Rectangle_127)">
      <rect id="Rectangle_127-2" data-name="Rectangle 127" width="145.662" height="160" rx="15" transform="translate(15 14)" fill="rgba(159,135,149,0.1)"/>
    </g>
    <g id="Lock" transform="translate(168 205)">
      <path id="Icon_ionic-ios-lock" data-name="Icon ionic-ios-lock" d="M50.2,25.529H46.48V18.345a14.9,14.9,0,0,0-29.8-.2v7.384H12.958A6.2,6.2,0,0,0,6.75,31.683V61.221a6.2,6.2,0,0,0,6.208,6.154H50.2a6.2,6.2,0,0,0,6.208-6.154V31.683A6.2,6.2,0,0,0,50.2,25.529Zm-16.451,19.2V55.313a2.214,2.214,0,0,1-2.064,2.215,2.167,2.167,0,0,1-2.281-2.154V44.729a4.917,4.917,0,0,1-2.778-4.877,4.971,4.971,0,0,1,9.917.446A4.905,4.905,0,0,1,33.754,44.729Zm8.381-19.2H21.028V18.145a10.326,10.326,0,0,1,3.1-7.384,10.556,10.556,0,0,1,14.9,0,10.326,10.326,0,0,1,3.1,7.384Z" transform="translate(-6.75 -3.374)" fill="#9f8795"/>
    </g>
  </g>
</svg>
