<svg id="Message" xmlns="http://www.w3.org/2000/svg" width="23" height="16" viewBox="0 0 23 16">
  <path id="Path_7" data-name="Path 7" d="M26.187,10.349l-5.949,6.219a.112.112,0,0,0,0,.159L24.4,21.278a.75.75,0,0,1,0,1.044.708.708,0,0,1-1.017,0l-4.147-4.534a.111.111,0,0,0-.16,0l-1.012,1.055a4.4,4.4,0,0,1-3.174,1.373,4.485,4.485,0,0,1-3.24-1.413l-.973-1.016a.111.111,0,0,0-.16,0L6.372,22.322a.708.708,0,0,1-1.017,0,.75.75,0,0,1,0-1.044l4.163-4.551a.123.123,0,0,0,0-.159L3.563,10.349a.109.109,0,0,0-.188.079V22.872a1.8,1.8,0,0,0,1.769,1.816H24.606a1.8,1.8,0,0,0,1.769-1.816V10.428A.11.11,0,0,0,26.187,10.349Z" transform="translate(-3.375 -8.688)" fill="#9f8795"/>
  <path id="Path_8" data-name="Path 8" d="M15.161,16.458a3.345,3.345,0,0,0,2.183-.769L26.1,8.2A1.972,1.972,0,0,0,25,7.875H5.331A1.958,1.958,0,0,0,4.226,8.2l8.758,7.486A3.345,3.345,0,0,0,15.161,16.458Z" transform="translate(-3.661 -7.875)" fill="#9f8795"/>
</svg>
