<svg xmlns="http://www.w3.org/2000/svg" width="15.995" height="31" viewBox="0 0 15.995 31">
  <path id="Icon_ionic-ios-phone-portrait" data-name="Icon ionic-ios-phone-portrait" d="M23.819,2.25H12.49a2.315,2.315,0,0,0-2.365,2.277V30.89a2.381,2.381,0,0,0,2.365,2.36H23.812a2.332,2.332,0,0,0,2.307-2.36V4.527A2.255,2.255,0,0,0,23.819,2.25ZM17.054,3.842H19.2a.277.277,0,1,1,0,.554H17.054a.277.277,0,1,1,0-.554Zm1.107,28.371a1.2,1.2,0,1,1,1.243-1.2A1.225,1.225,0,0,1,18.162,32.212Zm6.679-3.391H11.411a.141.141,0,0,1-.143-.138V5.917a.141.141,0,0,1,.143-.138h13.43a.141.141,0,0,1,.143.138V28.683A.141.141,0,0,1,24.841,28.821Z" transform="translate(-10.125 -2.25)" fill="#9f8795"/>
</svg>
